<?xml version="1.0" standalone="no"?>
<!DOCTYPE svg PUBLIC "-//W3C//DTD SVG 20010904//EN"
 "http://www.w3.org/TR/2001/REC-SVG-20010904/DTD/svg10.dtd">
<svg version="1.0" xmlns="http://www.w3.org/2000/svg"
 width="1500.000000pt" height="1500.000000pt" viewBox="0 0 1500.000000 1500.000000"
 preserveAspectRatio="xMidYMid meet">
<metadata>
Created by potrace 1.14, written by Peter Selinger 2001-2017
</metadata>
<g transform="translate(0.000000,1500.000000) scale(0.100000,-0.100000)"
fill="#000000" stroke="none">
<path d="M0 7500 l0 -7500 7500 0 7500 0 0 7500 0 7500 -7500 0 -7500 0 0
-7500z m5828 993 l-993 -993 993 -993 992 -992 -157 -158 -158 -157 -1153
1152 -1153 1153 1153 1147 1153 1147 158 -157 157 -157 -992 -992z m4175 -193
l798 -794 -1153 -1153 -1153 -1153 -157 157 -158 158 992 992 993 993 -993
993 -992 992 157 157 158 158 355 -353 c195 -194 714 -710 1153 -1147z"/>
</g>
</svg>
